<?xml version="1.0" encoding="utf-8"?>
<svg width="50px" height="50px" viewBox="0 0 50 50" version="1.1" xmlns:xlink="http://www.w3.org/1999/xlink" xmlns="http://www.w3.org/2000/svg">
  <defs>
    <filter id="filter_1">
      <feColorMatrix in="SourceGraphic" type="matrix" values="0 0 0 0 0 0 0 0 0 0 0 0 0 0 0 0 0 0 1 0" />
    </filter>
    <path d="M0 0L50 0L50 50L0 50L0 0Z" id="path_1" />
    <clipPath id="mask_1">
      <use xlink:href="#path_1" />
    </clipPath>
  </defs>
  <g id="Github-icon" filter="url(#filter_1)">
    <path d="M0 0L50 0L50 50L0 50L0 0Z" id="Background" fill="none" fill-rule="evenodd" stroke="none" />
    <g clip-path="url(#mask_1)">
      <path d="M18.75 0C8.39233 0 0 8.39233 0 18.75C0 27.0325 5.37109 34.0637 12.8235 36.5417C13.7634 36.7126 14.1052 36.1389 14.1052 35.6384C14.1052 35.1929 14.0869 34.0149 14.0808 32.4524C8.8623 33.5815 7.76367 29.9377 7.76367 29.9377C6.90918 27.771 5.68237 27.1912 5.68237 27.1912C3.97949 26.0315 5.81055 26.0559 5.81055 26.0559C7.69043 26.1902 8.6792 27.9846 8.6792 27.9846C10.3516 30.8533 13.0676 30.0232 14.1357 29.5471C14.3066 28.3325 14.7949 27.5085 15.3259 27.0386C11.1633 26.5686 6.78711 24.9573 6.78711 17.7734C6.78711 15.7227 7.51953 14.0503 8.71582 12.738C8.52661 12.2681 7.87964 10.3577 8.89893 7.77588C8.89893 7.77588 10.4736 7.27539 14.0564 9.69849C15.5518 9.28345 17.157 9.07593 18.75 9.06983C20.343 9.07593 21.9482 9.28345 23.4436 9.69849C27.0264 7.27539 28.595 7.77588 28.595 7.77588C29.6204 10.3577 28.9795 12.2681 28.7842 12.738C29.9866 14.0503 30.7068 15.7227 30.7068 17.7734C30.7068 24.9756 26.3245 26.5564 22.1497 27.0264C22.821 27.6001 23.4192 28.7476 23.4192 30.4932C23.4192 33.0017 23.4009 35.022 23.4009 35.6384C23.4009 36.1389 23.7366 36.7249 24.6887 36.5417C32.135 34.0576 37.5 27.0325 37.5 18.75C37.5 8.39233 29.1077 0 18.75 0L18.75 0Z" transform="translate(6.25 6.25)" id="Shape" fill="#FFFFFF" fill-rule="evenodd" stroke="none" />
    </g>
  </g>
</svg>