<?xml version="1.0" encoding="utf-8"?>
<svg width="50px" height="50px" viewBox="0 0 50 50" version="1.1" xmlns:xlink="http://www.w3.org/1999/xlink" xmlns="http://www.w3.org/2000/svg">
  <defs>
    <path d="M0 0L50 0L50 50L0 50L0 0Z" id="path_1" />
    <clipPath id="mask_1">
      <use xlink:href="#path_1" />
    </clipPath>
  </defs>
  <g id="icons8_linkedin_1">
    <path d="M0 0L50 0L50 50L0 50L0 0Z" id="Background" fill="none" fill-rule="evenodd" stroke="none" />
    <g clip-path="url(#mask_1)">
      <path d="M37.5 32.2917C37.5 35.1688 35.1688 37.5 32.2917 37.5L5.20833 37.5C2.33229 37.5 0 35.1688 0 32.2917L0 5.20833C0 2.33125 2.33229 0 5.20833 0L32.2917 0C35.1688 0 37.5 2.33125 37.5 5.20833L37.5 32.2917L37.5 32.2917Z" transform="translate(6.25 6.25)" id="Shape" fill="#0078D4" fill-rule="evenodd" stroke="none" />
      <path d="M19.7916 27.0833L19.7916 16.5635C19.7916 14.8042 18.9385 13.7531 17.5083 13.7531C16.6594 13.7531 16.0354 14.2312 15.6552 15.174C15.6375 15.2406 15.6125 15.5125 15.6229 16.3344L15.625 27.0833L8.33331 27.0833L8.33331 7.29166L15.625 7.29166L15.625 8.39687C16.6896 7.6625 17.9948 7.29166 19.5187 7.29166C24.2552 7.29166 27.0823 10.5135 27.0823 15.9104L27.0833 27.0833L19.7916 27.0833L19.7916 27.0833ZM0 27.0833L0 7.29167L3.60104 7.29167C1.51458 7.29167 0 5.75833 0 3.64479C0 1.53333 1.53958 0 3.66042 0C5.75625 0 7.24896 1.49062 7.29167 3.62396C7.29167 5.75313 5.75104 7.29167 3.63021 7.29167L7.29167 7.29167L7.29167 27.0833L0 27.0833L0 27.0833Z" transform="translate(11.458313 11.458336)" id="Shape" fill="#000000" fill-opacity="0.05" fill-rule="evenodd" stroke="none" />
      <path d="M19.7916 26.0417L19.7916 16.0427C19.7916 13.9875 18.7177 12.7115 16.9875 12.7115C15.6385 12.7115 14.9719 13.6615 14.651 14.4583C14.5656 14.6656 14.5771 15.4885 14.5812 15.8396L14.5833 26.0417L8.33331 26.0417L8.33331 7.29166L14.5833 7.29166L14.5833 8.99791C15.4114 8.14062 16.7448 7.29166 18.9979 7.29166C23.4073 7.29166 26.0406 10.3187 26.0406 15.3896L26.0416 26.0417L19.7916 26.0417L19.7916 26.0417ZM0 26.0417L0 7.29166L6.25 7.29166L6.25 26.0417L0 26.0417L0 26.0417ZM3.08021 6.25C1.29583 6.25 0 4.93542 0 3.12396C0 1.31354 1.32083 0 3.13958 0C4.93542 0 6.21354 1.28021 6.25 3.11354C6.25 4.93542 4.92917 6.25 3.10937 6.25L3.08021 6.25L3.08021 6.25Z" transform="translate(11.979187 11.979164)" id="Shape" fill="#000000" fill-opacity="0.07" fill-rule="evenodd" stroke="none" />
      <path d="M0 7.29166L5.20833 7.29166L5.20833 25L0 25L0 7.29166L0 7.29166ZM2.58854 5.20833L2.55937 5.20833C1.00521 5.20833 0 4.05 0 2.60312C0 1.125 1.03646 0 2.61875 0C4.20312 0 5.17917 1.125 5.20833 2.60313C5.20833 4.04896 4.20312 5.20833 2.58854 5.20833L2.58854 5.20833ZM25 25L19.7916 25L19.7916 15.5219C19.7916 13.2323 18.5156 11.6698 16.4666 11.6698C14.9031 11.6698 14.0573 12.724 13.6469 13.7427C13.4969 14.1073 13.5416 15.1156 13.5416 15.625L13.5416 25L8.33331 25L8.33331 7.29166L13.5416 7.29166L13.5416 10.0167C14.2927 8.85416 15.4687 7.29166 18.4771 7.29166C22.2041 7.29166 24.9989 9.63541 24.9989 14.8687L25 25L25 25L25 25Z" transform="translate(12.5 12.5)" id="Shape" fill="#FFFFFF" fill-rule="evenodd" stroke="none" />
    </g>
  </g>
</svg>