<?xml version="1.0" encoding="utf-8"?>
<svg width="50px" height="50px" viewBox="0 0 50 50" version="1.1" xmlns:xlink="http://www.w3.org/1999/xlink" xmlns="http://www.w3.org/2000/svg">
  <defs>
    <path d="M0 0L50 0L50 50L0 50L0 0Z" id="path_1" />
    <clipPath id="mask_1">
      <use xlink:href="#path_1" />
    </clipPath>
  </defs>
  <g id="icons8_twitter">
    <path d="M0 0L50 0L50 50L0 50L0 0Z" id="Background" fill="none" fill-rule="evenodd" stroke="none" />
    <g clip-path="url(#mask_1)">
      <path d="M37.5031 3.57187C36.125 4.18229 34.6427 4.58958 33.0792 4.78229C34.6687 3.83854 35.8917 2.33333 36.4656 0.555207C34.9781 1.42708 33.3302 2.06771 31.5771 2.40521C30.1771 0.920833 28.1802 0 25.9677 0C21.7177 0 18.2729 3.41458 18.2729 7.625C18.2729 8.22083 18.3427 8.80104 18.474 9.36458C12.0802 9.04375 6.40937 6.00417 2.61562 1.39167C1.94896 2.51875 1.57396 3.83854 1.57396 5.23125C1.57396 7.87812 2.92917 10.2083 4.99583 11.5812C3.73437 11.5427 2.54687 11.1917 1.50729 10.6292C1.50729 10.6521 1.50729 10.6865 1.50729 10.7188C1.50729 14.4177 4.16042 17.4979 7.67708 18.199C7.03437 18.375 6.35521 18.4729 5.65521 18.4729C5.15833 18.4729 4.67396 18.4167 4.20521 18.3323C5.18437 21.3552 8.025 23.5646 11.3906 23.6302C8.75729 25.6719 5.44062 26.8948 1.83438 26.8948C1.21146 26.8948 0.602083 26.8594 0 26.7865C3.40729 28.9437 7.45312 30.2083 11.7958 30.2083C25.9469 30.2083 33.6885 18.5875 33.6885 8.50625C33.6885 8.17604 33.6781 7.84688 33.6625 7.52188C35.1729 6.45521 36.475 5.10937 37.5031 3.57187" transform="translate(6.246887 9.375)" id="Shape" fill="#03A9F4" fill-rule="evenodd" stroke="none" />
    </g>
  </g>
</svg>